<?xml version="1.0" encoding="UTF-8"?><svg xmlns="http://www.w3.org/2000/svg" xmlns:xlink="http://www.w3.org/1999/xlink" height="500.0" preserveAspectRatio="xMidYMid meet" version="1.0" viewBox="2.6 7.5 504.2 500.0" width="504.2" zoomAndPan="magnify"><linearGradient gradientUnits="userSpaceOnUse" id="a" x1="6" x2="506" xlink:actuate="onLoad" xlink:show="other" xlink:type="simple" xmlns:xlink="http://www.w3.org/1999/xlink" y1="256" y2="256"><stop offset="0" stop-color="#b3833b"/><stop offset=".218" stop-color="#fdf3b6"/><stop offset=".518" stop-color="#d9b852"/><stop offset=".683" stop-color="#efdc90"/><stop offset=".797" stop-color="#fdf3b6"/><stop offset=".857" stop-color="#e4cc92"/><stop offset=".915" stop-color="#d2ae76"/><stop offset=".965" stop-color="#c69c65"/><stop offset="1" stop-color="#c2955f"/></linearGradient><path d="M502.89,221.5c-1.13-7.6-2.54-15.16-4.25-22.65c-4.75-30.8-12.94-62.63-31.37-88.25 c-8.9-12.37-19.23-24.81-30.8-34.76c-5.03-4.33-10.52-8.3-16.23-11.97c-14.22-13.23-29.81-25.02-46.93-33.67 c-14.11-7.13-29.55-13.74-44.9-17.62c-16-4.04-32.69-5.1-49.13-4.13c-6.8,0.4-13.49,1.39-20.13,2.68 c-15.51,0.26-30.93,2.34-45.83,6.69c-4.87,0.72-9.69,1.6-14.4,2.66c-15.47,3.47-30.42,10.04-44.7,16.82 c-14.79,7.02-28.69,15.56-41.78,25.4C88.46,80.73,66.92,101.77,50.48,127c-15.71,24.11-26.78,51.07-33.67,78.97 C8.91,237.93,2.64,270.89,8,303.79c2.66,16.33,8.08,31.65,14.36,46.89c6.07,14.75,12.58,29.04,22.06,41.96 c7.34,10.01,15.38,19.16,24.3,27.6c8.4,10.23,18.1,18.9,28.97,26.58c6.7,4.74,13.52,9.37,20.87,13.06c0.13,0.06,0.25,0.12,0.38,0.18 c12.07,7.38,25.34,12.56,38.29,18.24c14.81,6.49,30.11,11.84,45.76,15.92c31.94,8.33,67.24,13.25,99.93,6.46 c4.87-1.01,9.63-2.47,14.28-4.23c7.15-0.99,14.21-2.51,20.89-4.83c5.68-1.97,11.25-4.53,16.71-7.41c7.03-1.15,13.95-2.84,20.91-4.35 c3.23-0.7,1.86-5.66-1.37-4.96c-1.89,0.41-3.78,0.84-5.67,1.27c4.02-2.49,7.95-5.05,11.8-7.55c13.17-8.56,26.46-18,38.58-28 c7.01-5.78,13.06-12.86,18.79-20.18c10.35-8.92,19.94-18.68,28.31-29.66c9.86-12.93,16.23-26.85,22.29-41.85 c6.49-16.04,10.77-31.78,13.38-48.88c0.61-4.01,1.1-8.03,1.49-12.07c0.96-5.74,1.71-11.48,2.18-17.13 C506.85,254.46,505.31,237.74,502.89,221.5z M490.42,320.19c-5.18,15.47-12.88,29.96-20.79,44.18 c-7.22,12.96-14.25,26.18-23.75,37.66c-3.92,4.74-7.66,9.72-11.5,14.64c-14.88,12.68-31.32,23.51-47.92,34.1 c-14.19,9.05-28.22,18.3-42.87,26.61c-2.08,1.18-4.17,2.35-6.27,3.5c-3.61,0.22-7.22,0.43-10.82,0.79 c-16.55,1.64-32.64,5.58-49.31,6.49c-11.65,0.63-23.25,0.62-34.82-0.25c-1.82-0.35-3.63-0.7-5.42-1.07 c-15.58-3.16-30.99-7.09-46.48-10.65c-11.53-2.66-22.93-5.44-34.24-8.7c-16.12-9.3-30.55-21.72-43.4-35.02 c-9.85-10.19-18.91-21.11-27.64-32.26c-9.52-12.17-18.58-24.85-25.35-38.78c-7.19-14.8-12.11-30.73-15.03-46.9 c-3.03-16.81-3.21-34.17-3.89-51.2c-0.65-16.32,0.73-32.74,3.16-48.88c2.39-15.9,5.6-31.86,11.53-46.86 c5.82-14.74,14.21-28.93,22.48-42.41c3.88-6.32,8.07-12.41,12.52-18.28c17.33-20.24,37.49-38.28,59.68-53.06 c10.55-5.95,21.28-11.78,32.16-16.98c15.25-7.28,32.33-10.62,48.71-14.49c1.96-0.46,3.92-0.94,5.88-1.41 c3.77-0.09,7.52-0.06,11.23,0.11c16.24,0.75,32.17,4.4,48.15,7.14c3.21,0.55,4.59-4.36,1.36-4.92c-13.84-2.38-27.64-5.43-41.63-6.82 c0.58-0.12,1.15-0.24,1.73-0.36c16.06-0.37,32.21,1.3,47.76,4.48c15.36,3.14,30.79,7.53,45.37,13.31 c15.06,5.97,29.18,14.27,43.66,21.49c8.39,4.18,16.91,8.8,24.91,14.06c8.76,8.34,16.99,17.22,24.67,26.29 c9.87,11.65,17.83,24.84,24.83,38.36c6.93,13.38,13.33,27.16,18.14,41.45c2.24,6.67,4.16,13.44,5.83,20.27c0.41,2.5,0.8,5,1.17,7.49 c4.32,29.45,6.68,59.74,3.33,89.42C495.75,302.1,493.37,311.39,490.42,320.19z M281.87,492.97c14.74-1.2,29.13-4.53,43.8-6.09 c-3.93,1.87-7.93,3.57-12.02,5.03C303.22,493.3,292.53,493.53,281.87,492.97z M114.77,450.71c-14.79-10.5-29.4-21.87-42.58-34.59 c-1.42-1.75-2.82-3.53-4.16-5.38c-8.8-12.1-16.04-25.63-22.62-39.04c-6.97-14.23-11.04-28.86-14.5-44.25 c-3.78-16.84-6.54-33.69-6.4-51c0.14-17.01,1.83-34.52,5.52-51.13c3.31-14.9,8.87-29.58,14.43-43.77c1.78-4.53,3.74-8.98,5.83-13.37 c-5.71,15.1-8.86,31.1-11.19,47.03c-2.43,16.58-3.8,33.37-3.04,50.13c0.76,16.86,0.9,33.87,3.86,50.53 c2.9,16.32,7.91,32.29,15.02,47.27c6.84,14.43,16.15,27.47,25.91,40.04c9.07,11.68,18.5,23.09,28.8,33.71 c8.61,8.88,17.91,17.33,27.93,24.75c-4.66-1.53-9.3-3.14-13.77-5.17C120.73,454.7,117.71,452.8,114.77,450.71z M478.91,142.35 c-5.23-11.1-11.21-21.94-17.99-32.07c1.44,1.98,2.86,3.97,4.2,5.96C470.66,124.42,475.18,133.21,478.91,142.35z M373.63,35.44 c8.9,4.74,17.39,10.33,25.48,16.49c-1.23-0.62-2.47-1.24-3.69-1.83c-14.7-7.1-28.73-15.52-43.98-21.46 c-15.53-6.05-31.98-10.67-48.37-13.7c-4.73-0.88-9.5-1.61-14.29-2.2C318.73,12.68,347.06,21.29,373.63,35.44z M25.51,344.74 c-5.76-13.97-10.3-28.35-12.64-43.3c-5.01-32.14,1.54-64.66,9.4-95.8c6.93-27.45,18.02-53.83,33.71-77.44 c16.34-24.6,37.83-45.16,61.53-62.64c12.38-9.13,25.51-17.07,39.41-23.68c4.55-2.16,9.16-4.29,13.83-6.3 c-2.98,1.55-5.95,3.13-8.93,4.77c-6.39,3.53-12.54,7.63-18.52,11.98c-1.59,0.92-3.17,1.84-4.74,2.77 c-13.57,7.98-24.75,18.41-35.51,29.81c-4.13,4.38-8.08,8.91-11.85,13.57c-11.21,12.35-21.36,25.64-30.38,39.88 c-8.58,13.56-16.06,27.75-21.87,42.71c-5.98,15.4-12.13,31.41-15.01,47.73c-3.01,17.05-4.89,34.51-4.65,51.84 c0.23,17.02,3.25,33.69,7.01,50.24c3.6,15.83,8.14,30.66,15.41,45.22c2.18,4.38,4.44,8.75,6.79,13.09 c-0.38-0.52-0.78-1.03-1.15-1.56C37.93,374.44,31.66,359.67,25.51,344.74z M204.55,488.89c8.23,1.07,16.53,1.8,24.71,2.9 c3.89,0.52,7.78,0.93,11.67,1.24c13.23,2.51,26.64,4.38,40.1,4.96C255.42,499.57,229.03,495.29,204.55,488.89z M376.18,465.29 c-7.5,4.72-15.26,9.76-23.3,14.08c-0.48,0.08-0.96,0.16-1.44,0.23c-0.43,0.06-0.86,0.11-1.28,0.17 c14.4-8.45,28.22-17.78,42.35-26.67c5.12-3.22,10.2-6.5,15.22-9.89C397.58,451.02,386.88,458.56,376.18,465.29z M460.78,389.42 c5.15-8.2,9.74-16.79,14.4-25.22c2.13-3.85,4.22-7.72,6.25-11.63C475.86,365.8,469.68,377.92,460.78,389.42z" fill="url(#a)"/></svg>